<?xml version="1.0" encoding="UTF-8" standalone="no"?>
<!-- Created with Inkscape (http://www.inkscape.org/) -->

<svg
   xmlns:dc="http://purl.org/dc/elements/1.1/"
   xmlns:cc="http://creativecommons.org/ns#"
   xmlns:rdf="http://www.w3.org/1999/02/22-rdf-syntax-ns#"
   xmlns:svg="http://www.w3.org/2000/svg"
   xmlns="http://www.w3.org/2000/svg"
   xmlns:sodipodi="http://sodipodi.sourceforge.net/DTD/sodipodi-0.dtd"
   xmlns:inkscape="http://www.inkscape.org/namespaces/inkscape"
   width="210mm"
   height="297mm"
   viewBox="0 0 210 297"
   version="1.1"
   id="svg4973"
   inkscape:version="0.92.3 (2405546, 2018-03-11)"
   sodipodi:docname="-ev.svg">
  <defs
     id="defs4967" />
  <sodipodi:namedview
     id="base"
     pagecolor="#ffffff"
     bordercolor="#666666"
     borderopacity="1.0"
     inkscape:pageopacity="0.0"
     inkscape:pageshadow="2"
     inkscape:zoom="0.7"
     inkscape:cx="694.68934"
     inkscape:cy="514.91826"
     inkscape:document-units="mm"
     inkscape:current-layer="layer1"
     showgrid="false"
     inkscape:window-width="1920"
     inkscape:window-height="1017"
     inkscape:window-x="-8"
     inkscape:window-y="-8"
     inkscape:window-maximized="1" />
  <metadata
     id="metadata4970">
    <rdf:RDF>
      <cc:Work
         rdf:about="">
        <dc:format>image/svg+xml</dc:format>
        <dc:type
           rdf:resource="http://purl.org/dc/dcmitype/StillImage" />
        <dc:title></dc:title>
      </cc:Work>
    </rdf:RDF>
  </metadata>
  <g
     inkscape:label="レイヤー 1"
     inkscape:groupmode="layer"
     id="layer1">
    <path
       inkscape:connector-curvature="0"
       style="fill:#000000;stroke-width:0.64321566"
       d="m 99.991868,120.68107 a 43.30485,10.050001 0 0 0 -43.212828,9.62456 h -0.09191 v 0.42626 81.80694 h 0.02095 a 43.30485,10.050001 0 0 0 -0.02095,0.0919 43.30485,10.050001 0 0 0 43.304848,10.05074 43.30485,10.050001 0 0 0 43.304862,-10.05074 43.30485,10.050001 0 0 0 -0.0132,-0.0919 h 0.0132 v -81.80694 -0.42626 h -0.0652 a 43.30485,10.050001 0 0 0 -43.239902,-9.62456 z m 0,2.67547 a 37.357752,6.846575 0 0 1 37.357182,6.8462 37.357752,6.846575 0 0 1 -37.357182,6.84756 37.357752,6.846575 0 0 1 -37.357253,-6.84756 37.357752,6.846575 0 0 1 37.357253,-6.8462 z m -37.442489,12.3053 h 0.114966 c 1.478885,4.84675 17.748682,7.20759 37.327473,7.20759 19.568792,-0.008 35.313612,-1.34806 37.301682,-7.20759 h 0.14063 v 74.61157 0.19483 h -0.0422 a 37.442351,8.5984021 0 0 1 -37.400502,8.40241 37.442351,8.5984021 0 0 1 -37.412698,-8.40244 h -0.02981 v -0.19484 z"
       id="rect22" />
    <path
       style="fill:#000000;stroke-width:0.4923631"
       d="m 59.696794,134.72935 -11.563766,21.79186 -11.56372,21.79043 12.077963,19.12182 12.078041,19.12044 -0.18541,-14.70603 -6.430809,-9.9588 -9.20632,-14.25679 8.813875,-16.24604 6.172289,-11.37567 z"
       id="path194"
       inkscape:connector-curvature="0" />
    <path
       inkscape:connector-curvature="0"
       style="fill:#000000;stroke-width:0.17438705"
       d="m 177.46966,135.64024 c -0.72712,0.69923 0,0 -37.59,36.06751 l 0.1909,7.14531 -0.008,10.43507 c 0,5.73897 0.0484,11.94863 0.11366,13.79937 v 0 c 0.0644,1.85088 0.17703,3.30447 0.24905,3.23026 0.0723,-0.0744 9.68787,-15.81057 21.3682,-34.96865 18.12442,-29.72783 21.25671,-34.95884 21.36688,-35.69809 3e-4,0 0,-0.008 0,-0.0102 z"
       id="path3926" />
    <g
       id="g4945"
       transform="matrix(0.6928776,0,0,0.6928776,-1185.1964,-2608.5911)">
      <path
         inkscape:connector-curvature="0"
         id="path3969-2-9-5-9"
         d="m 1972.3501,3967.033 c -6.4019,14.036 -7.7335,24.2451 -7.9999,28.4974 0.4613,5.6753 2.8644,10.269 7.3333,10.5646 0.2281,0.011 0.4491,0 0.6666,-0.011 0.2175,0.011 0.4384,0.017 0.6666,0.011 4.4688,-0.2956 6.8719,-4.8893 7.3332,-10.5646 -0.2664,-4.2523 -1.598,-14.4614 -7.9998,-28.4974 z"
         style="fill:#000000;stroke:#000000;stroke-width:0.1381204px;stroke-linecap:butt;stroke-linejoin:miter;stroke-opacity:1" />
      <path
         inkscape:connector-curvature="0"
         id="path3969-2-9"
         d="m 1956.961,4008.7665 c -6.7162,12.3657 -8.113,21.3601 -8.3926,25.1062 0.484,5.0001 3.0051,9.0472 7.6933,9.3076 0.2394,0.012 0.4711,0 0.6993,-0.012 0.2282,0.012 0.46,0.015 0.6994,0.012 4.6881,-0.2604 7.2092,-4.3075 7.6931,-9.3076 -0.2795,-3.7461 -1.6764,-12.7405 -8.3925,-25.1062 z"
         style="fill:#000000;stroke:#000000;stroke-width:0.13278615px;stroke-linecap:butt;stroke-linejoin:miter;stroke-opacity:1" />
      <path
         inkscape:connector-curvature="0"
         id="path3969-2-9-1"
         d="m 1974.4227,4034.6351 c -5.4816,10.2853 -6.6219,17.7663 -6.8501,20.8823 0.395,4.1588 2.4529,7.525 6.2795,7.7415 0.1953,0.011 0.3844,0 0.5706,-0.01 0.1863,0.01 0.3756,0.013 0.571,0.01 3.8265,-0.2165 5.8843,-3.5827 6.2793,-7.7415 -0.2283,-3.116 -1.3684,-10.597 -6.8503,-20.8823 z"
         style="fill:#000000;stroke:#000000;stroke-width:0.10940906px;stroke-linecap:butt;stroke-linejoin:miter;stroke-opacity:1" />
    </g>
    <g
       id="g4940"
       transform="matrix(0.77414538,0,0,0.77414538,-1456.6562,-2999.5031)">
      <circle
         r="40.208309"
         cy="4002.0029"
         cx="2088.3069"
         id="path4915"
         style="fill:none;stroke:#000000;stroke-width:5.69999981;stroke-miterlimit:4;stroke-dasharray:none" />
      <rect
         y="3998.1182"
         x="2062.2783"
         height="7.7697215"
         width="52.057133"
         id="rect4936"
         style="fill:#000000;stroke:none;stroke-width:5.69999981;stroke-miterlimit:4;stroke-dasharray:none;paint-order:markers stroke fill" />
    </g>
  </g>
</svg>
